<svg width="983" height="887" viewBox="0 0 983 887" fill="none" xmlns="http://www.w3.org/2000/svg">
<g filter="url(#filter0_d)">
<path fill-rule="evenodd" clip-rule="evenodd" d="M979 371.443L491.5 0L4 371.443H96.5561V878.404H886.444V371.443H979Z" fill="#0000FF"/>
<path d="M293.003 591.219V403.438H252.973V480.433H193.647V403.438H153.472V591.219H193.647V509.838H252.973V591.219H293.003Z" fill="white"/>
<path d="M478.036 511.128V483.786C478.036 475.274 477.124 467.235 475.301 459.669C473.573 452.103 471.029 445.138 467.669 438.776C464.597 433.187 460.901 428.071 456.581 423.428C452.357 418.786 447.414 414.83 441.75 411.563C436.086 408.124 429.702 405.502 422.598 403.696C415.591 401.804 408.055 400.859 399.991 400.859C392.024 400.859 384.632 401.761 377.816 403.567C371 405.373 364.857 407.952 359.385 411.305C353.817 414.744 348.873 418.871 344.553 423.686C340.329 428.501 336.73 433.875 333.754 439.808C330.682 446.084 328.33 452.92 326.698 460.314C325.162 467.708 324.394 475.532 324.394 483.786V511.128C324.394 518.866 325.066 526.218 326.41 533.182C327.85 540.146 329.914 546.595 332.602 552.528C335.578 558.976 339.274 564.78 343.689 569.939C348.105 575.011 353.097 579.353 358.665 582.965C364.329 586.404 370.616 589.069 377.528 590.961C384.44 592.852 391.976 593.798 400.135 593.798C407.815 593.798 414.967 592.938 421.59 591.219C428.31 589.585 434.454 587.264 440.022 584.254C446.166 580.815 451.637 576.516 456.437 571.357C461.237 566.198 465.269 560.524 468.533 554.333C471.605 548.143 473.957 541.436 475.589 534.214C477.22 526.906 478.036 519.21 478.036 511.128ZM436.998 483.529V511.128C436.998 515.771 436.71 520.242 436.134 524.541C435.654 528.84 434.886 532.795 433.83 536.406C432.486 541.049 430.662 545.219 428.358 548.916C426.15 552.528 423.414 555.537 420.151 557.944C417.559 559.922 414.583 561.427 411.223 562.458C407.863 563.49 404.167 564.006 400.135 564.006C395.911 564.006 392.12 563.447 388.76 562.329C385.496 561.212 382.568 559.621 379.976 557.557C377.192 555.236 374.744 552.227 372.632 548.53C370.616 544.746 369.08 540.576 368.024 536.019C367.065 532.408 366.393 528.496 366.009 524.283C365.625 520.07 365.433 515.685 365.433 511.128V483.529C365.433 478.714 365.625 474.114 366.009 469.729C366.489 465.344 367.209 461.303 368.168 457.606C369.416 452.791 371.144 448.578 373.352 444.966C375.656 441.355 378.44 438.346 381.704 435.939C384.104 434.305 386.792 433.058 389.768 432.198C392.84 431.339 396.247 430.909 399.991 430.909C403.927 430.909 407.479 431.382 410.647 432.327C413.911 433.273 416.839 434.606 419.431 436.325C422.694 438.647 425.526 441.656 427.926 445.353C430.326 448.965 432.246 453.092 433.686 457.735C434.838 461.432 435.654 465.473 436.134 469.858C436.71 474.157 436.998 478.714 436.998 483.529Z" fill="white"/>
<path d="M558.529 403.438H508.275V591.219H545.426V535.633L543.698 451.286L568.321 529.313H588.336L615.839 447.804L614.111 535.633V591.219H651.262V403.438H601.008L578.401 473.985L558.529 403.438Z" fill="white"/>
<path d="M814.984 508.936V480.304H728.875V432.972H829.095V403.438H688.269V591.219H829.527V561.942H728.875V508.936H814.984Z" fill="white"/>
<path d="M287.675 719.802V690.397H197.823V639.325H298.907V609.79H153.472V797.571H197.823V719.802H287.675Z" fill="white"/>
<path d="M340.665 609.79V639.067H380.552V768.424H340.665V797.571H461.909V768.424H421.014V639.067H461.909V609.79H340.665Z" fill="white"/>
<path d="M617.711 748.562C617.711 751.916 616.943 755.011 615.407 757.848C613.871 760.6 611.663 762.964 608.784 764.942C605.904 766.919 602.352 768.467 598.128 769.585C594 770.702 589.248 771.261 583.873 771.261C577.825 771.261 572.257 770.659 567.169 769.456C562.177 768.252 557.905 766.36 554.354 763.781C550.706 761.201 547.874 757.891 545.858 753.85C543.842 749.809 542.738 744.951 542.546 739.276H502.803C502.803 748.992 504.867 757.461 508.995 764.684C513.219 771.906 518.931 778.182 526.131 783.513C533.714 788.93 542.594 793.057 552.77 795.894C563.041 798.646 573.409 800.021 583.873 800.021C594.528 800.021 604.368 798.904 613.391 796.668C622.415 794.347 630.191 790.951 636.719 786.48C643.246 782.095 648.334 776.721 651.982 770.358C655.726 763.91 657.598 756.558 657.598 748.304C657.598 738.761 655.15 730.335 650.254 723.026C645.358 715.718 638.782 709.312 630.527 703.81C625.055 700.456 619.055 697.49 612.527 694.911C606 692.331 599.136 690.139 591.936 688.333C585.216 686.7 579.169 684.937 573.793 683.045C568.513 681.154 564.001 679.047 560.257 676.726C556.514 674.49 553.634 671.954 551.618 669.117C549.698 666.279 548.738 663.098 548.738 659.573C548.738 656.22 549.458 653.124 550.898 650.287C552.434 647.364 554.642 644.827 557.521 642.678C560.401 640.614 563.905 639.024 568.033 637.906C572.257 636.702 577.057 636.1 582.433 636.1C588.288 636.1 593.376 636.831 597.696 638.293C602.112 639.668 605.808 641.603 608.784 644.096C611.663 646.676 613.823 649.728 615.263 653.253C616.799 656.779 617.663 660.648 617.855 664.861H657.31C657.31 656.435 655.486 648.696 651.838 641.646C648.19 634.596 643.102 628.491 636.575 623.332C630.047 618.259 622.223 614.304 613.103 611.467C604.08 608.63 594.096 607.211 583.153 607.211C572.593 607.211 562.801 608.458 553.778 610.951C544.754 613.359 536.93 616.841 530.306 621.398C523.683 625.955 518.499 631.457 514.755 637.906C511.011 644.354 509.139 651.534 509.139 659.444C509.139 666.322 510.531 672.685 513.315 678.531C516.195 684.378 520.419 689.709 525.987 694.524C531.554 699.339 538.706 703.767 547.442 707.808C556.274 711.849 566.497 715.288 578.113 718.125C585.6 719.931 591.84 721.909 596.832 724.058C601.92 726.122 606.048 728.4 609.216 730.893C612.287 733.473 614.447 736.224 615.695 739.148C617.039 742.071 617.711 745.209 617.711 748.562Z" fill="white"/>
<path d="M829.527 797.571V610.951L784.313 609.79V686.786H724.987V609.79H684.813V797.571H724.987V716.191H784.313V797.571H829.527Z" fill="white"/>
<path fill-rule="evenodd" clip-rule="evenodd" d="M414.758 206.001C419.184 203.098 423.558 200.528 427.603 198.616C456.818 184.804 505.386 188.06 505.386 188.06L510.537 215.818C567.941 225.171 623.352 239.133 658.208 248.715L722.828 198.313C722.828 198.313 711.217 235.501 711.217 259.878C711.217 284.255 722.828 321.443 722.828 321.443L658.266 271.086C603.25 287.71 496.932 316.354 412.45 318.098L409.937 344.273C409.937 344.273 386.623 338.545 378.464 328.301C375.437 324.501 373.253 320.574 371.893 316.598C289.363 308.181 266.208 269.434 262.115 261.462C261.651 260.558 261.612 258.375 262.115 257.491C266.913 249.073 296.018 205.876 404.483 205.876C407.87 205.876 411.296 205.919 414.758 206.001ZM370.873 295.665C374.289 287.248 376.32 276.7 376.32 265.251C376.32 249.045 372.25 234.645 365.946 225.539C375.561 232.337 382.171 246.471 382.171 262.805C382.171 276.168 377.747 288.059 370.873 295.665ZM335.706 250.118C340.224 250.118 343.886 246.647 343.886 242.366C343.886 238.085 340.224 234.614 335.706 234.614C331.189 234.614 327.527 238.085 327.527 242.366C327.527 246.647 331.189 250.118 335.706 250.118Z" fill="white"/>
</g>
<defs>
<filter id="filter0_d" x="0" y="0" width="983" height="886.404" filterUnits="userSpaceOnUse" color-interpolation-filters="sRGB">
<feFlood flood-opacity="0" result="BackgroundImageFix"/>
<feColorMatrix in="SourceAlpha" type="matrix" values="0 0 0 0 0 0 0 0 0 0 0 0 0 0 0 0 0 0 127 0"/>
<feOffset dy="4"/>
<feGaussianBlur stdDeviation="2"/>
<feColorMatrix type="matrix" values="0 0 0 0 0 0 0 0 0 0 0 0 0 0 0 0 0 0 0.25 0"/>
<feBlend mode="normal" in2="BackgroundImageFix" result="effect1_dropShadow"/>
<feBlend mode="normal" in="SourceGraphic" in2="effect1_dropShadow" result="shape"/>
</filter>
</defs>
</svg>
