<svg width="806" height="727" viewBox="0 0 806 727" fill="none" xmlns="http://www.w3.org/2000/svg">
<path fill-rule="evenodd" clip-rule="evenodd" d="M806 307.06L403 0L0 307.06H76.5131V726.148H729.487V307.06H806Z" fill="white"/>
<path d="M238.909 490.394V335.162H205.818V398.812H156.775V335.162H123.564V490.394H156.775V423.12H205.818V490.394H238.909Z" fill="black"/>
<path d="M391.87 424.186V401.584C391.87 394.547 391.116 387.901 389.609 381.647C388.18 375.392 386.077 369.635 383.3 364.375C380.76 359.755 377.705 355.526 374.134 351.688C370.642 347.849 366.555 344.58 361.873 341.879C357.191 339.036 351.914 336.868 346.042 335.375C340.248 333.812 334.019 333.03 327.353 333.03C320.766 333.03 314.656 333.776 309.021 335.269C303.387 336.761 298.308 338.894 293.785 341.666C289.182 344.509 285.095 347.921 281.524 351.901C278.032 355.881 275.057 360.323 272.597 365.228C270.057 370.416 268.113 376.067 266.764 382.18C265.494 388.292 264.859 394.76 264.859 401.584V424.186C264.859 430.583 265.415 436.66 266.526 442.417C267.716 448.175 269.422 453.505 271.644 458.41C274.104 463.74 277.16 468.538 280.81 472.803C284.46 476.996 288.587 480.586 293.19 483.571C297.872 486.414 303.07 488.617 308.783 490.181C314.497 491.745 320.727 492.527 327.472 492.527C333.821 492.527 339.733 491.816 345.208 490.394C350.763 489.044 355.842 487.125 360.445 484.637C365.524 481.794 370.047 478.24 374.015 473.975C377.983 469.711 381.316 465.02 384.014 459.902C386.553 454.785 388.498 449.241 389.847 443.27C391.196 437.229 391.87 430.867 391.87 424.186ZM357.945 401.37V424.186C357.945 428.024 357.707 431.72 357.231 435.274C356.834 438.828 356.199 442.097 355.326 445.083C354.215 448.921 352.707 452.368 350.803 455.424C348.978 458.41 346.716 460.897 344.018 462.887C341.875 464.522 339.415 465.766 336.638 466.619C333.86 467.472 330.805 467.898 327.472 467.898C323.98 467.898 320.846 467.436 318.068 466.512C315.37 465.588 312.95 464.273 310.807 462.568C308.506 460.649 306.482 458.161 304.736 455.105C303.07 451.977 301.8 448.53 300.927 444.763C300.133 441.778 299.578 438.544 299.261 435.061C298.943 431.578 298.784 427.953 298.784 424.186V401.37C298.784 397.39 298.943 393.587 299.261 389.963C299.657 386.338 300.252 382.997 301.046 379.941C302.078 375.96 303.506 372.478 305.331 369.492C307.236 366.507 309.537 364.019 312.235 362.029C314.219 360.679 316.441 359.648 318.901 358.937C321.441 358.227 324.258 357.871 327.353 357.871C330.607 357.871 333.543 358.262 336.162 359.044C338.86 359.826 341.28 360.928 343.423 362.349C346.121 364.268 348.462 366.756 350.446 369.812C352.43 372.797 354.017 376.209 355.207 380.047C356.16 383.104 356.834 386.444 357.231 390.069C357.707 393.623 357.945 397.39 357.945 401.37Z" fill="black"/>
<path d="M458.411 335.162H416.868V490.394H447.579V444.443L446.15 374.717L466.506 439.219H483.051L505.787 371.838L504.359 444.443V490.394H535.07V335.162H493.527L474.838 393.481L458.411 335.162Z" fill="black"/>
<path d="M670.414 422.374V398.705H599.23V359.577H682.079V335.162H565.662V490.394H682.436V466.193H599.23V422.374H670.414Z" fill="black"/>
<path d="M234.505 596.69V572.381H160.227V530.162H243.79V505.747H123.564V660.979H160.227V596.69H234.505Z" fill="black"/>
<path d="M278.31 505.747V529.949H311.283V636.884H278.31V660.979H378.538V636.884H344.732V529.949H378.538V505.747H278.31Z" fill="black"/>
<path d="M507.335 620.465C507.335 623.237 506.7 625.796 505.43 628.141C504.16 630.416 502.335 632.37 499.955 634.005C497.574 635.64 494.638 636.919 491.146 637.843C487.734 638.767 483.805 639.229 479.361 639.229C474.362 639.229 469.759 638.732 465.553 637.737C461.427 636.742 457.895 635.178 454.959 633.046C451.944 630.913 449.602 628.177 447.936 624.836C446.269 621.496 445.357 617.48 445.198 612.789H412.344C412.344 620.82 414.05 627.821 417.463 633.792C420.955 639.762 425.676 644.951 431.628 649.358C437.897 653.836 445.238 657.247 453.65 659.593C462.141 661.867 470.711 663.004 479.361 663.004C488.17 663.004 496.304 662.08 503.764 660.232C511.223 658.313 517.651 655.506 523.047 651.81C528.444 648.185 532.65 643.743 535.665 638.483C538.76 633.152 540.308 627.075 540.308 620.252C540.308 612.362 538.284 605.397 534.237 599.355C530.19 593.314 524.754 588.018 517.929 583.469C513.406 580.697 508.446 578.245 503.049 576.113C497.653 573.981 491.979 572.168 486.027 570.676C480.472 569.325 475.473 567.868 471.029 566.304C466.664 564.741 462.934 562.999 459.84 561.08C456.745 559.232 454.364 557.135 452.697 554.79C451.11 552.444 450.317 549.814 450.317 546.9C450.317 544.128 450.912 541.57 452.102 539.224C453.372 536.807 455.197 534.711 457.578 532.934C459.959 531.228 462.855 529.913 466.267 528.989C469.759 527.994 473.727 527.496 478.171 527.496C483.012 527.496 487.218 528.1 490.789 529.309C494.439 530.446 497.494 532.045 499.955 534.106C502.335 536.239 504.121 538.762 505.311 541.676C506.581 544.59 507.295 547.789 507.454 551.272H540.07C540.07 544.306 538.562 537.909 535.546 532.081C532.531 526.252 528.325 521.206 522.928 516.941C517.532 512.748 511.064 509.478 503.526 507.133C496.066 504.787 487.813 503.615 478.766 503.615C470.037 503.615 461.943 504.645 454.483 506.706C447.023 508.697 440.556 511.575 435.08 515.342C429.604 519.109 425.319 523.658 422.224 528.989C419.129 534.32 417.582 540.255 417.582 546.794C417.582 552.48 418.733 557.74 421.034 562.573C423.415 567.406 426.906 571.813 431.509 575.793C436.112 579.773 442.024 583.434 449.245 586.774C456.546 590.115 464.998 592.958 474.6 595.304C480.79 596.796 485.948 598.431 490.075 600.208C494.281 601.914 497.693 603.797 500.312 605.859C502.851 607.991 504.637 610.265 505.668 612.682C506.779 615.099 507.335 617.693 507.335 620.465Z" fill="black"/>
<path d="M682.436 660.979V506.706L645.059 505.747V569.396H596.016V505.747H562.805V660.979H596.016V593.704H645.059V660.979H682.436Z" fill="black"/>
<path fill-rule="evenodd" clip-rule="evenodd" d="M339.56 171.948C343.219 169.548 346.835 167.423 350.178 165.842C374.33 154.425 414.479 157.116 414.479 157.116L418.737 180.063C466.191 187.794 511.998 199.337 540.812 207.258L594.231 165.592C594.231 165.592 584.633 196.334 584.633 216.486C584.633 236.638 594.231 267.38 594.231 267.38L540.86 225.751C495.38 239.493 407.49 263.172 337.652 264.614L335.575 286.252C335.575 286.252 316.302 281.517 309.557 273.049C307.055 269.907 305.249 266.661 304.124 263.375C235.9 256.416 216.759 224.385 213.375 217.795C212.992 217.048 212.959 215.243 213.375 214.513C217.341 207.553 241.401 171.844 331.066 171.844C333.865 171.844 336.698 171.879 339.56 171.948ZM303.282 246.07C306.106 239.112 307.785 230.392 307.785 220.928C307.785 207.531 304.42 195.627 299.209 188.099C307.158 193.718 312.622 205.403 312.622 218.906C312.622 229.953 308.965 239.782 303.282 246.07ZM274.211 208.417C277.945 208.417 280.972 205.548 280.972 202.009C280.972 198.47 277.945 195.601 274.211 195.601C270.476 195.601 267.449 198.47 267.449 202.009C267.449 205.548 270.476 208.417 274.211 208.417Z" fill="black"/>
</svg>
