<svg width="150" height="136" viewBox="0 0 150 136" fill="none" xmlns="http://www.w3.org/2000/svg">
<path d="M29.0571 41.6405L59.8233 16.002L111.1 29.6759L116.228 41.6405L131.611 60.442V127.102H18.8018V60.442L29.0571 41.6405Z" fill="white"/>
<path fill-rule="evenodd" clip-rule="evenodd" d="M150 57.7641L75 0.618988L0 57.7641H14.2411V135.758H135.762V57.7641H150ZM65.1717 31.4827C64.5494 31.7769 63.8765 32.1723 63.1956 32.619C62.663 32.6063 62.1358 32.5997 61.6148 32.5997C44.9278 32.5997 40.4501 39.2453 39.7121 40.5405C39.6346 40.6765 39.6407 41.0123 39.7121 41.1514C40.3418 42.3779 43.9039 48.3389 56.6009 49.6339C56.8102 50.2455 57.1462 50.8496 57.6119 51.4343C58.8671 53.0103 62.4539 53.8915 62.4539 53.8915L62.8404 49.8647C75.8373 49.5963 92.1933 45.1898 100.657 42.6323L110.59 50.3794C110.59 50.3794 108.804 44.6581 108.804 40.9078C108.804 37.1575 110.59 31.4363 110.59 31.4363L100.649 39.1902C95.2863 37.716 86.7618 35.5681 77.9308 34.1292L77.1383 29.8587C77.1383 29.8587 69.6664 29.3579 65.1717 31.4827ZM57.2811 41.7344C57.2811 43.4958 56.9685 45.1186 56.443 46.4135C57.5006 45.2434 58.1811 43.414 58.1811 41.3582C58.1811 38.8452 57.1643 36.6707 55.685 35.6249C56.6549 37.0259 57.2811 39.2413 57.2811 41.7344ZM52.2896 38.2136C52.2896 38.8722 51.7262 39.4061 51.0313 39.4061C50.3363 39.4061 49.7729 38.8722 49.7729 38.2136C49.7729 37.5549 50.3363 37.021 51.0313 37.021C51.7262 37.021 52.2896 37.5549 52.2896 38.2136ZM72.9296 75.3554V79.5618C72.9296 80.8052 72.804 81.9891 72.553 83.1134C72.3019 84.2245 71.94 85.2563 71.4675 86.2087C70.9653 87.1611 70.345 88.0341 69.6066 88.8278C68.8682 89.6215 68.0264 90.2828 67.0812 90.812C66.2246 91.2749 65.2794 91.6321 64.2456 91.8834C63.2265 92.148 62.1263 92.2802 60.9448 92.2802C59.6894 92.2802 58.5301 92.1347 57.4667 91.8437C56.4034 91.5527 55.436 91.1426 54.5647 90.6135C53.7081 90.058 52.9401 89.39 52.2608 88.6095C51.5814 87.8159 51.0128 86.923 50.555 85.9309C50.1415 85.0182 49.8239 84.0261 49.6024 82.9547C49.3957 81.8832 49.2923 80.7523 49.2923 79.5618V75.3554C49.2923 74.0855 49.4104 72.8818 49.6467 71.7442C49.8978 70.6066 50.2596 69.555 50.7322 68.5894C51.19 67.6767 51.7439 66.8499 52.3937 66.1092C53.0583 65.3684 53.8189 64.7335 54.6755 64.2044C55.5173 63.6885 56.4625 63.2917 57.511 63.0139C58.5596 62.7361 59.6968 62.5972 60.9226 62.5972C62.1632 62.5972 63.3225 62.7427 64.4006 63.0337C65.4935 63.3115 66.4756 63.715 67.347 64.2441C68.2183 64.7467 68.9789 65.3552 69.6288 66.0695C70.2933 66.7838 70.8619 67.5709 71.3345 68.4307C71.8514 69.4095 72.2428 70.481 72.5086 71.645C72.7893 72.809 72.9296 74.0458 72.9296 75.3554ZM66.6159 79.5618V75.3157C66.6159 74.5749 66.5716 73.8739 66.483 73.2125C66.4092 72.5379 66.2836 71.9162 66.1064 71.3474C65.8849 70.6331 65.5895 69.9981 65.2203 69.4426C64.8511 68.8738 64.4154 68.4108 63.9133 68.0537C63.5145 67.7891 63.0641 67.5841 62.5619 67.4386C62.0746 67.2931 61.5281 67.2203 60.9226 67.2203C60.3466 67.2203 59.8223 67.2865 59.3497 67.4187C58.8919 67.551 58.4784 67.7428 58.1092 67.9941C57.607 68.3645 57.1788 68.8275 56.8243 69.3831C56.4846 69.9386 56.2188 70.5868 56.0268 71.3275C55.8791 71.8963 55.7683 72.518 55.6945 73.1926C55.6354 73.8672 55.6059 74.5749 55.6059 75.3157V79.5618C55.6059 80.2628 55.6354 80.9375 55.6945 81.5856C55.7536 82.2338 55.857 82.8356 56.0046 83.3912C56.1671 84.0923 56.4034 84.7338 56.7135 85.3158C57.0384 85.8846 57.415 86.3476 57.8433 86.7047C58.2421 87.0222 58.6925 87.2669 59.1947 87.4389C59.7116 87.6108 60.2949 87.6968 60.9448 87.6968C61.565 87.6968 62.1336 87.6175 62.6505 87.4587C63.1675 87.3 63.6253 87.0685 64.024 86.7643C64.5262 86.3939 64.9471 85.9309 65.2868 85.3754C65.6412 84.8066 65.9218 84.165 66.1286 83.4507C66.291 82.8952 66.4092 82.2867 66.483 81.6253C66.5716 80.9639 66.6159 80.2761 66.6159 79.5618ZM44.4629 62.9941V91.8834H38.3044V79.3634H29.1773V91.8834H22.9966V62.9941H29.1773V74.8395H38.3044V62.9941H44.4629ZM85.3131 62.9941H77.5817V91.8834H83.2972V83.3317L83.0313 70.3553L86.8195 82.3594H89.8988L94.13 69.8196L93.8642 83.3317V91.8834H99.5796V62.9941H91.8482L88.3702 73.8474L85.3131 62.9941ZM124.768 74.8196V79.2245H111.52V87.3794H127.005V91.8834H105.273V62.9941H126.939V67.5378H111.52V74.8196H124.768ZM43.6432 111.665V107.142H29.8198V99.2843H45.3712V94.7406H22.9966V123.63H29.8198V111.665H43.6432ZM51.7956 99.2446V94.7406H70.4484V99.2446H64.157V119.146H70.4484V123.63H51.7956V119.146H57.932V99.2446H51.7956ZM94.418 116.09C94.418 116.606 94.2998 117.082 94.0635 117.519C93.8272 117.942 93.4876 118.306 93.0445 118.61C92.6014 118.914 92.055 119.152 91.4052 119.324C90.7701 119.496 90.0391 119.582 89.212 119.582C88.2816 119.582 87.425 119.49 86.6423 119.304C85.8743 119.119 85.2171 118.828 84.6707 118.431C84.1095 118.035 83.6738 117.525 83.3636 116.904C83.0535 116.282 82.8836 115.535 82.8541 114.662H76.7399C76.7399 116.156 77.0574 117.459 77.6925 118.57C78.3423 119.681 79.221 120.647 80.3287 121.467C81.4954 122.301 82.8615 122.935 84.427 123.372C86.0072 123.795 87.6022 124.007 89.212 124.007C90.8514 124.007 92.3651 123.835 93.7534 123.491C95.1417 123.134 96.3379 122.611 97.3422 121.924C98.3465 121.249 99.1292 120.422 99.6904 119.443C100.266 118.451 100.554 117.32 100.554 116.05C100.554 114.582 100.178 113.286 99.4246 112.161C98.6714 111.037 97.6597 110.052 96.3896 109.205C95.5478 108.689 94.6248 108.233 93.6205 107.836C92.6162 107.439 91.5603 107.102 90.4526 106.824C89.4188 106.573 88.4884 106.302 87.6613 106.011C86.849 105.72 86.1549 105.396 85.5789 105.038C85.003 104.694 84.5599 104.304 84.2498 103.868C83.9544 103.431 83.8067 102.942 83.8067 102.399C83.8067 101.884 83.9175 101.407 84.139 100.971C84.3753 100.521 84.715 100.131 85.158 99.8002C85.6011 99.4827 86.1401 99.238 86.7752 99.066C87.425 98.8809 88.1635 98.7883 88.9905 98.7883C89.8914 98.7883 90.6741 98.9007 91.3387 99.1256C92.0181 99.3372 92.5867 99.6348 93.0445 100.018C93.4876 100.415 93.8199 100.885 94.0414 101.427C94.2777 101.97 94.4106 102.565 94.4402 103.213H100.51C100.51 101.917 100.229 100.726 99.6683 99.6414C99.107 98.5568 98.3243 97.6176 97.32 96.8239C96.3158 96.0435 95.1121 95.435 93.7091 94.9985C92.3208 94.562 90.7849 94.3438 89.1013 94.3438C87.4767 94.3438 85.9703 94.5356 84.5821 94.9192C83.1938 95.2895 81.9901 95.8253 80.9711 96.5263C79.9521 97.2274 79.1546 98.074 78.5786 99.066C78.0026 100.058 77.7146 101.163 77.7146 102.38C77.7146 103.438 77.9288 104.417 78.357 105.316C78.8001 106.216 79.4499 107.036 80.3065 107.776C81.1631 108.517 82.2634 109.198 83.6073 109.82C84.966 110.442 86.5389 110.971 88.3259 111.408C89.4779 111.685 90.4378 111.99 91.2058 112.32C91.9885 112.638 92.6236 112.988 93.111 113.372C93.5836 113.769 93.9159 114.192 94.1079 114.642C94.3146 115.091 94.418 115.574 94.418 116.09ZM127.005 94.9192V123.63H120.049V111.11H110.922V123.63H104.741V94.7406H110.922V106.586H120.049V94.7406L127.005 94.9192Z" fill="black"/>
</svg>
